# xmcd CD database file
#
# Track frame offsets:
#	150
#	13525
#	23043
#	33384
#	44027
#	52815
#	66480
#	74887
#	82724
#	92853
#	102828
#	111983
#
# Disc length: 1628 seconds
#
# Revision: 0
# Processed by: cddbd v1.5.2PL0 Copyright (c) Steve Scherf et al.
# Submitted via: jetAudio 7
#
DISCID=a0065a0c
DTITLE=Cat-Iron - Sings Blues And Hymns
DYEAR=1900
DGENRE=Blues
TTITLE0=Poor Boy Long, Long Way From Home
TTITLE1=Don't Your House Look Lonesome
TTITLE2=Tell Me, You Didn't Mean Me No Good
TTITLE3=Jimmy Bell
TTITLE4=I'm Goin' To Walk Your Log
TTITLE5=Got a Girl in Ferriday, One in Greenwood Town
TTITLE6=Well I'm in Your Hand
TTITLE7=When I Lay My Burden Down
TTITLE8=Old Time Religion
TTITLE9=Fix Me Right
TTITLE10=O, The Blood Done Signed My Name
TTITLE11=When the Saints Go Marching Home
EXTD=
EXTT0=
EXTT1=
EXTT2=
EXTT3=
EXTT4=
EXTT5=
EXTT6=
EXTT7=
EXTT8=
EXTT9=
EXTT10=
EXTT11=
PLAYORDER=
